<svg width="512" height="512" viewBox="0 0 512 512" fill="none" xmlns="http://www.w3.org/2000/svg">
<g clip-path="url(#clip0_1072_4500)">
<mask id="mask0_1072_4500" style="mask-type:luminance" maskUnits="userSpaceOnUse" x="0" y="0" width="512" height="512">
<path d="M512 0H0V512H512V0Z" fill="white"/>
</mask>
<g mask="url(#mask0_1072_4500)">
<path d="M256 512C397.385 512 512 397.385 512 256C512 114.615 397.385 0 256 0C114.615 0 0 114.615 0 256C0 397.385 114.615 512 256 512Z" fill="#1E1E2E"/>
<path d="M444 72H68C52.536 72 40 84.536 40 100V396C40 411.464 52.536 424 68 424H444C459.464 424 472 411.464 472 396V100C472 84.536 459.464 72 444 72Z" fill="#0D0D1A"/>
<path d="M444 72H68C52.536 72 40 84.536 40 100C40 115.464 52.536 128 68 128H444C459.464 128 472 115.464 472 100C472 84.536 459.464 72 444 72Z" fill="#2A2A3E"/>
<path d="M472 100H40V128H472V100Z" fill="#2A2A3E"/>
<path d="M288 168H76C73.7909 168 72 169.791 72 172V174C72 176.209 73.7909 178 76 178H288C290.209 178 292 176.209 292 174V172C292 169.791 290.209 168 288 168Z" fill="#3A3A5A"/>
<path d="M228 200H76C73.7909 200 72 201.791 72 204V206C72 208.209 73.7909 210 76 210H228C230.209 210 232 208.209 232 206V204C232 201.791 230.209 200 228 200Z" fill="#3A3A5A"/>
<path d="M340 232H76C73.7909 232 72 233.791 72 236V238C72 240.209 73.7909 242 76 242H340C342.209 242 344 240.209 344 238V236C344 233.791 342.209 232 340 232Z" fill="#3A3A5A"/>
<path d="M180 264H76C73.7909 264 72 265.791 72 268V270C72 272.209 73.7909 274 76 274H180C182.209 274 184 272.209 184 270V268C184 265.791 182.209 264 180 264Z" fill="#3A3A5A"/>
<path d="M260 296H76C73.7909 296 72 297.791 72 300V302C72 304.209 73.7909 306 76 306H260C262.209 306 264 304.209 264 302V300C264 297.791 262.209 296 260 296Z" fill="#3A3A5A"/>
<path d="M208 328H76C73.7909 328 72 329.791 72 332V334C72 336.209 73.7909 338 76 338H208C210.209 338 212 336.209 212 334V332C212 329.791 210.209 328 208 328Z" fill="#3A3A5A"/>
<path d="M96 360H76C73.7909 360 72 361.791 72 364V366C72 368.209 73.7909 370 76 370H96C98.2091 370 100 368.209 100 366V364C100 361.791 98.2091 360 96 360Z" fill="#6A6AAA"/>
<path d="M86.9812 99.6263L68.4337 89.3469C67.5026 88.8255 66.8787 88.36 66.5622 87.9503C66.2642 87.5406 66.1152 87.0192 66.1152 86.386C66.1152 85.5853 66.4039 84.8963 66.9812 84.319C67.5584 83.7417 68.2381 83.4531 69.0203 83.4531C69.5044 83.4531 70.2493 83.7231 71.2549 84.2631L98.8806 99.6263L71.2549 114.989C70.2493 115.548 69.5044 115.827 69.0203 115.827C68.2381 115.827 67.5584 115.539 66.9812 114.961C66.4039 114.384 66.1152 113.686 66.1152 112.866C66.1152 112.233 66.2642 111.712 66.5622 111.302C66.8787 110.892 67.5026 110.427 68.4337 109.905L86.9812 99.6263Z" fill="#80E1AE"/>
<path d="M133.779 121.867H102.327C100.949 121.867 99.9711 121.606 99.3939 121.085C98.798 120.564 98.5 119.875 98.5 119.018C98.5 118.161 98.798 117.463 99.3939 116.923C99.9711 116.402 100.949 116.141 102.327 116.141H133.779C135.139 116.141 136.107 116.402 136.684 116.923C137.28 117.463 137.578 118.161 137.578 119.018C137.578 119.856 137.29 120.536 136.712 121.057C136.135 121.597 135.157 121.867 133.779 121.867Z" fill="#80E1AE"/>
</g>
<path d="M373.875 383.5V329.506L356.65 346.731L347.375 337.125L380.5 304L413.625 337.125L404.35 346.731L387.125 329.506V383.5H373.875ZM327.5 310.625V290.75C327.5 287.106 328.797 283.987 331.392 281.392C333.987 278.797 337.106 277.5 340.75 277.5H420.25C423.894 277.5 427.013 278.797 429.608 281.392C432.203 283.987 433.5 287.106 433.5 290.75V310.625H420.25V290.75H340.75V310.625H327.5Z" fill="white"/>
</g>
<defs>
<clipPath id="clip0_1072_4500">
<rect width="512" height="512" fill="white"/>
</clipPath>
</defs>
</svg>
